<svg width="14" height="13" viewBox="0 0 14 13" fill="none" xmlns="http://www.w3.org/2000/svg">
<path d="M7 0C7.94518 0 8.86065 0.184279 9.72461 0.549805C10.5563 0.901186 11.3125 1.4106 11.9502 2.0498C12.5893 2.68738 13.0988 3.44286 13.4502 4.27441C13.8143 5.13848 14 6.05469 14 7C14 9.07334 13.0888 11.026 11.5029 12.3604L11.4766 12.3828C11.3859 12.4578 11.2715 12.5 11.1543 12.5H2.84668C2.72969 12.5 2.61592 12.4576 2.52539 12.3828L2.49805 12.3604C0.91086 11.026 3.94497e-05 9.07319 0 7C0 6.05469 0.18418 5.13848 0.549805 4.27441C0.90117 3.44286 1.41071 2.68738 2.0498 2.0498C2.68747 1.4106 3.44369 0.901186 4.27539 0.549805C5.13935 0.184279 6.05482 0 7 0ZM7 1.1875C5.44844 1.1875 3.98906 1.79219 2.89062 2.89062C1.79223 3.98749 1.1875 5.44691 1.1875 7C1.18669 7.81273 1.35665 8.6166 1.68652 9.35938C2.01654 10.1023 2.49976 10.7681 3.10352 11.3125H10.8965C12.1168 10.211 12.8125 8.64995 12.8125 7C12.8125 5.44847 12.2078 3.98905 11.1094 2.89062C10.0125 1.79219 8.55313 1.1875 7 1.1875ZM8.6543 4.7998C8.68722 4.79991 8.71879 4.81277 8.74219 4.83594L9.18457 5.27832C9.23264 5.32667 9.2326 5.40572 9.18457 5.4541L7.86426 6.77441C7.9042 6.92266 7.90394 7.07922 7.86426 7.22754C7.82449 7.37591 7.74645 7.51165 7.6377 7.62012C7.5565 7.70147 7.45969 7.76651 7.35352 7.81055C7.24743 7.8545 7.13339 7.87695 7.01855 7.87695C6.90368 7.87693 6.78971 7.85456 6.68359 7.81055C6.57751 7.76654 6.48155 7.70138 6.40039 7.62012C6.31904 7.53892 6.254 7.44211 6.20996 7.33594C6.16603 7.22988 6.14355 7.11578 6.14355 7.00098C6.14361 6.88619 6.16598 6.77205 6.20996 6.66602C6.25399 6.55999 6.31913 6.46392 6.40039 6.38281C6.63003 6.15326 6.95302 6.0782 7.24512 6.15625L8.56543 4.83594C8.58892 4.81267 8.62123 4.7998 8.6543 4.7998ZM3.09375 6.53125C3.1625 6.53125 3.21875 6.5875 3.21875 6.65625V7.34375C3.21868 7.41244 3.16246 7.46875 3.09375 7.46875H1.84375C1.77504 7.46875 1.71882 7.41244 1.71875 7.34375V6.65625C1.71875 6.5875 1.775 6.53125 1.84375 6.53125H3.09375ZM12.0938 6.53125C12.1625 6.53125 12.2188 6.5875 12.2188 6.65625V7.34375C12.2187 7.41244 12.1625 7.46875 12.0938 7.46875H10.8438C10.775 7.46875 10.7188 7.41244 10.7188 7.34375V6.65625C10.7188 6.5875 10.775 6.53125 10.8438 6.53125H12.0938ZM3.66309 3.05273C3.69615 3.05273 3.72846 3.0656 3.75195 3.08887L4.63574 3.97363C4.68407 4.02203 4.68403 4.10099 4.63574 4.14941L4.15039 4.63574C4.10198 4.68416 4.02208 4.68411 3.97363 4.63574L3.08887 3.75098C3.06581 3.72752 3.05273 3.696 3.05273 3.66309C3.05275 3.63017 3.06578 3.59865 3.08887 3.5752L3.5752 3.08887C3.59863 3.06573 3.63015 3.05279 3.66309 3.05273ZM10.3428 3.05273C10.3758 3.05273 10.4081 3.0656 10.4316 3.08887L10.917 3.5752C10.9653 3.6236 10.9653 3.70255 10.917 3.75098L10.0332 4.63574C9.98479 4.68416 9.90489 4.68411 9.85645 4.63574L9.37012 4.14941C9.34706 4.12595 9.33398 4.09443 9.33398 4.06152C9.334 4.02861 9.34703 3.99709 9.37012 3.97363L10.2549 3.08887C10.2783 3.06573 10.3098 3.05279 10.3428 3.05273ZM7.34375 1.75C7.4125 1.75 7.46875 1.80625 7.46875 1.875V3.125C7.46868 3.19369 7.41245 3.25 7.34375 3.25H6.65625C6.58755 3.25 6.53132 3.19369 6.53125 3.125V1.875C6.53125 1.80625 6.5875 1.75 6.65625 1.75H7.34375Z" fill="#ffffff"/>
</svg>
