<svg width="14" height="14" viewBox="0 0 14 14" fill="none" xmlns="http://www.w3.org/2000/svg">
<path d="M6.63333 10.6667C6.86667 10.6667 7.064 10.586 7.22533 10.4247C7.38667 10.2633 7.46711 10.0662 7.46667 9.83333C7.46622 9.60044 7.38578 9.40311 7.22533 9.24133C7.06489 9.07956 6.86756 8.99911 6.63333 9C6.39911 9.00089 6.202 9.08156 6.042 9.242C5.882 9.40244 5.80133 9.59956 5.8 9.83333C5.79867 10.0671 5.87933 10.2644 6.042 10.4253C6.20467 10.5862 6.40178 10.6667 6.63333 10.6667ZM6.66667 13.3333C5.74445 13.3333 4.87778 13.1582 4.06667 12.808C3.25556 12.4578 2.55 11.9829 1.95 11.3833C1.35 10.7838 0.875112 10.0782 0.525334 9.26667C0.175556 8.45511 0.000445288 7.58844 8.43882e-07 6.66667C-0.000443601 5.74489 0.174668 4.87822 0.525334 4.06667C0.876001 3.25511 1.35089 2.54956 1.95 1.95C2.54911 1.35044 3.25467 0.875556 4.06667 0.525333C4.87867 0.175111 5.74533 0 6.66667 0C7.588 0 8.45467 0.175111 9.26667 0.525333C10.0787 0.875556 10.7842 1.35044 11.3833 1.95C11.9824 2.54956 12.4576 3.25511 12.8087 4.06667C13.1598 4.87822 13.3347 5.74489 13.3333 6.66667C13.332 7.58844 13.1569 8.45511 12.808 9.26667C12.4591 10.0782 11.9842 10.7838 11.3833 11.3833C10.7824 11.9829 10.0769 12.458 9.26667 12.8087C8.45644 13.1593 7.58978 13.3342 6.66667 13.3333ZM6.66667 12C8.15556 12 9.41667 11.4833 10.45 10.45C11.4833 9.41667 12 8.15556 12 6.66667C12 5.17778 11.4833 3.91667 10.45 2.88333C9.41667 1.85 8.15556 1.33333 6.66667 1.33333C5.17778 1.33333 3.91667 1.85 2.88333 2.88333C1.85 3.91667 1.33333 5.17778 1.33333 6.66667C1.33333 8.15556 1.85 9.41667 2.88333 10.45C3.91667 11.4833 5.17778 12 6.66667 12ZM6.73333 3.8C7.01111 3.8 7.25289 3.88889 7.45867 4.06667C7.66444 4.24444 7.76711 4.46667 7.76667 4.73333C7.76667 4.97778 7.69178 5.19444 7.542 5.38333C7.39222 5.57222 7.22267 5.75 7.03333 5.91667C6.77778 6.13889 6.55289 6.38333 6.35867 6.65C6.16445 6.91667 6.06711 7.21667 6.06667 7.55C6.06667 7.70556 6.12511 7.83622 6.242 7.942C6.35889 8.04778 6.49489 8.10044 6.65 8.1C6.81667 8.1 6.95845 8.04444 7.07533 7.93333C7.19222 7.82222 7.26711 7.68333 7.3 7.51667C7.34445 7.28333 7.44445 7.07511 7.6 6.892C7.75556 6.70889 7.92222 6.53378 8.1 6.36667C8.35556 6.12222 8.57511 5.85556 8.75867 5.56667C8.94222 5.27778 9.03378 4.95556 9.03333 4.6C9.03333 4.03333 8.80289 3.56956 8.342 3.20867C7.88111 2.84778 7.34489 2.66711 6.73333 2.66667C6.31111 2.66667 5.90845 2.75556 5.52533 2.93333C5.14222 3.11111 4.85045 3.38333 4.65 3.75C4.57222 3.88333 4.54733 4.02511 4.57533 4.17533C4.60333 4.32556 4.67822 4.43933 4.8 4.51667C4.95556 4.60556 5.11667 4.63333 5.28333 4.6C5.45 4.56667 5.58889 4.47222 5.7 4.31667C5.82222 4.15 5.97511 4.02222 6.15867 3.93333C6.34222 3.84444 6.53378 3.8 6.73333 3.8Z" fill="#ffffff"/>
</svg>