<svg width="15" height="15" viewBox="0 0 15 15" fill="none" xmlns="http://www.w3.org/2000/svg">
<path d="M0.599976 7.2666C0.599976 7.96794 0.719976 8.64127 0.941309 9.2666M0.941309 9.2666H6.59998M0.941309 9.2666C1.355 10.4367 2.12136 11.4497 3.1348 12.1661C4.14824 12.8825 5.3589 13.267 6.59998 13.2666C5.57064 13.2666 4.72264 10.9333 4.61198 7.93327M7.94264 5.2666H13.6013M13.6013 5.2666C13.1876 4.0965 12.4213 3.08348 11.4078 2.3671C10.3944 1.65072 9.18372 1.26623 7.94264 1.2666C9.00931 1.2666 9.88198 3.7746 9.93931 6.93327M13.6013 5.2666C13.7866 5.7926 13.9013 6.35194 13.9333 6.93327" stroke="#262626" stroke-width="1.2" stroke-linecap="round" stroke-linejoin="round"/>
<path d="M0.599976 2.7981C0.599976 2.06676 0.599976 1.7001 0.724642 1.4161C0.857976 1.11476 1.08598 0.872764 1.36998 0.732764C1.63798 0.600098 1.98331 0.600098 2.67331 0.600098H3.26664C4.52398 0.600098 5.15198 0.600098 5.54264 1.01343C5.93331 1.42876 5.93331 2.09343 5.93331 3.42676V4.93276C5.93331 5.51343 5.93331 5.8041 5.75731 5.9041C5.58131 6.0041 5.35331 5.84276 4.89731 5.5201L4.82731 5.47143C4.49398 5.23543 4.32731 5.1181 4.13798 5.05743C3.94931 4.99676 3.74864 4.99676 3.34798 4.99676H2.67464C1.98331 4.99676 1.63798 4.99676 1.36998 4.8641C1.08119 4.71931 0.852688 4.47735 0.724642 4.18076C0.599976 3.89676 0.599976 3.53076 0.599976 2.7981ZM13.9333 10.7981C13.9333 10.0661 13.9333 9.7001 13.8086 9.4161C13.6806 9.11951 13.4521 8.87755 13.1633 8.73276C12.8953 8.6001 12.55 8.6001 11.86 8.6001H11.2666C10.0093 8.6001 9.38131 8.6001 8.99064 9.01343C8.59998 9.42876 8.59998 10.0934 8.59998 11.4268V12.9328C8.59998 13.5134 8.59998 13.8041 8.77598 13.9041C8.95198 14.0041 9.17997 13.8428 9.63597 13.5201L9.70598 13.4714C10.0393 13.2354 10.206 13.1181 10.3953 13.0574C10.584 12.9968 10.7846 12.9968 11.1853 12.9968H11.8586C12.55 12.9968 12.8953 12.9968 13.1633 12.8641C13.4473 12.7241 13.676 12.4821 13.8086 12.1808C13.9333 11.8968 13.9333 11.5308 13.9333 10.7981Z" stroke="#262626" stroke-width="1.2"/>
</svg>