<svg width="12" height="12" viewBox="0 0 12 12" fill="none" xmlns="http://www.w3.org/2000/svg">
<path d="M0 5.33333H5.33333V0H0V5.33333ZM1.33333 1.33333H4V4H1.33333V1.33333ZM0 12H5.33333V6.66667H0V12ZM1.33333 8H4V10.6667H1.33333V8ZM6.66667 0V5.33333H12V0H6.66667ZM10.6667 4H8V1.33333H10.6667V4ZM10.6667 10.6667H12V12H10.6667V10.6667ZM6.66667 6.66667H8V8H6.66667V6.66667ZM8 8H9.33333V9.33333H8V8ZM6.66667 9.33333H8V10.6667H6.66667V9.33333ZM8 10.6667H9.33333V12H8V10.6667ZM9.33333 9.33333H10.6667V10.6667H9.33333V9.33333ZM9.33333 6.66667H10.6667V8H9.33333V6.66667ZM10.6667 8H12V9.33333H10.6667V8Z" fill="#ffffff"/>
</svg>