<svg width="11" height="14" viewBox="0 0 11 14" fill="none" xmlns="http://www.w3.org/2000/svg">
<path d="M3.33333 7.33333H7.33333C7.52222 7.33333 7.68067 7.26933 7.80867 7.14133C7.93667 7.01333 8.00044 6.85511 8 6.66667C7.99956 6.47822 7.93556 6.32 7.808 6.192C7.68044 6.064 7.52222 6 7.33333 6H3.33333C3.14444 6 2.98622 6.064 2.85867 6.192C2.73111 6.32 2.66711 6.47822 2.66667 6.66667C2.66622 6.85511 2.73022 7.01356 2.85867 7.142C2.98711 7.27044 3.14533 7.33422 3.33333 7.33333ZM3.33333 9.33333H7.33333C7.52222 9.33333 7.68067 9.26933 7.80867 9.14133C7.93667 9.01333 8.00044 8.85511 8 8.66667C7.99956 8.47822 7.93556 8.32 7.808 8.192C7.68044 8.064 7.52222 8 7.33333 8H3.33333C3.14444 8 2.98622 8.064 2.85867 8.192C2.73111 8.32 2.66711 8.47822 2.66667 8.66667C2.66622 8.85511 2.73022 9.01356 2.85867 9.142C2.98711 9.27044 3.14533 9.33422 3.33333 9.33333ZM3.33333 11.3333H5.33333C5.52222 11.3333 5.68067 11.2693 5.80867 11.1413C5.93667 11.0133 6.00044 10.8551 6 10.6667C5.99956 10.4782 5.93556 10.32 5.808 10.192C5.68044 10.064 5.52222 10 5.33333 10H3.33333C3.14444 10 2.98622 10.064 2.85867 10.192C2.73111 10.32 2.66711 10.4782 2.66667 10.6667C2.66622 10.8551 2.73022 11.0136 2.85867 11.142C2.98711 11.2704 3.14533 11.3342 3.33333 11.3333ZM1.33333 13.3333C0.966667 13.3333 0.652889 13.2029 0.392 12.942C0.131111 12.6811 0.000444444 12.3671 0 12V1.33333C0 0.966667 0.130667 0.652889 0.392 0.392C0.653333 0.131111 0.967111 0.000444444 1.33333 0H6.11667C6.29444 0 6.464 0.0333334 6.62533 0.1C6.78667 0.166667 6.92822 0.261111 7.05 0.383333L10.2833 3.61667C10.4056 3.73889 10.5 3.88067 10.5667 4.042C10.6333 4.20333 10.6667 4.37267 10.6667 4.55V12C10.6667 12.3667 10.5362 12.6807 10.2753 12.942C10.0144 13.2033 9.70045 13.3338 9.33333 13.3333H1.33333ZM9.33333 4.66667H7C6.72222 4.66667 6.48622 4.56956 6.292 4.37533C6.09778 4.18111 6.00044 3.94489 6 3.66667V1.33333H1.33333V12H9.33333V4.66667Z" fill="#262626"/>
</svg>
