<svg width="18" height="16" viewBox="0 0 18 16" fill="none" xmlns="http://www.w3.org/2000/svg">
<path d="M6.60714 6.29464H17.3214C17.4196 6.29464 17.5 6.21429 17.5 6.11607V4.86607C17.5 4.76786 17.4196 4.6875 17.3214 4.6875H6.60714C6.50893 4.6875 6.42857 4.76786 6.42857 4.86607V6.11607C6.42857 6.21429 6.50893 6.29464 6.60714 6.29464ZM6.42857 10.8482C6.42857 10.9464 6.50893 11.0268 6.60714 11.0268H17.3214C17.4196 11.0268 17.5 10.9464 17.5 10.8482V9.59822C17.5 9.5 17.4196 9.41964 17.3214 9.41964H6.60714C6.50893 9.41964 6.42857 9.5 6.42857 9.59822V10.8482ZM17.6786 0H0.178571C0.0803571 0 0 0.0803571 0 0.178571V1.42857C0 1.52679 0.0803571 1.60714 0.178571 1.60714H17.6786C17.7768 1.60714 17.8571 1.52679 17.8571 1.42857V0.178571C17.8571 0.0803571 17.7768 0 17.6786 0ZM17.6786 14.1071H0.178571C0.0803571 14.1071 0 14.1875 0 14.2857V15.5357C0 15.6339 0.0803571 15.7143 0.178571 15.7143H17.6786C17.7768 15.7143 17.8571 15.6339 17.8571 15.5357V14.2857C17.8571 14.1875 17.7768 14.1071 17.6786 14.1071ZM0.0758929 8.01116L3.56473 10.7589C3.6942 10.8616 3.88616 10.7701 3.88616 10.6049V5.10938C3.88616 4.9442 3.69643 4.85268 3.56473 4.95536L0.0758929 7.70313C0.0524335 7.72136 0.0334505 7.74472 0.0203925 7.77141C0.00733439 7.79811 0.000546319 7.82743 0.000546319 7.85714C0.000546319 7.88686 0.00733439 7.91618 0.0203925 7.94287C0.0334505 7.96957 0.0524335 7.99292 0.0758929 8.01116V8.01116Z" fill="#262626"/>
</svg>
