<svg viewBox="0 0 62 62" xmlns="http://www.w3.org/2000/svg">
  <path d="M53.114 0.795H8.407C4.229 0.795 0.794 4.265 0.794 8.505v44.511c0 4.238 3.435 7.709 7.613 7.709h44.707c4.203 0 7.615 -3.471 7.615 -7.709V8.506c0 -4.24 -3.412 -7.71 -7.615 -7.71" fill="#9e173b"/>
  
  <path d="M8.407 1.589c-3.762 0 -6.818 3.102 -6.818 6.917v44.51c0 3.814 3.056 6.915 6.818 6.915h44.707c3.76 0 6.827 -3.101 6.827 -6.916V8.506c0 -3.815 -3.068 -6.917 -6.827 -6.917zm44.707 59.928H8.407C3.77 61.517 0 57.702 0 53.015V8.506C0 3.817 3.77 0 8.407 0h44.707c4.634 0 8.41 3.817 8.41 8.506v44.51c0 4.686 -3.776 8.501 -8.41 8.501" fill="#fff"/>
  
  <g>
    <path d="M42 8.622h10.913v44.286H42v-12.54c-9.613 3.515 -18.602 3.825 -26.86 -4.266 -3.421 -3.56 -5.35 -8.41 -4.543 -16.86 0.138 -1.294 -0.467 -7.296 -1.986 -10.632h9.693c4.541 7.21 -1.41 16.412 5.547 22.286C33.333 37.034 41.6 29.694 42 23.067zm-10.873 4.57c5.168 0 9.343 4.181 9.343 9.249 0 5.115 -4.175 9.255 -9.343 9.255 -5.167 0 -9.387 -4.14 -9.387 -9.255 0 -5.068 4.22 -9.249 9.387 -9.249" fill="#fab90c"/>
  </g>
</svg>